<?xml version="1.0" encoding="UTF-8"?>
<svg id="Layer_2" data-name="Layer 2" xmlns="http://www.w3.org/2000/svg" viewBox="0 0 920.56 183.9">
  <g id="Layer_1-2" data-name="Layer 1">
    <g>
      <g>
        <polygon points="248.67 181.59 248.67 96.13 215.96 96.13 215.96 77.83 300.99 77.83 300.99 96.13 268.27 96.13 268.27 181.59 248.67 181.59"/>
        <path d="M317.54,183.75c-7.83,0-14.7-1.75-20.61-5.26-5.91-3.51-10.51-8.35-13.8-14.52-3.29-6.17-4.93-13.27-4.93-21.29s1.68-15.27,5.04-21.44c3.36-6.17,8-10.99,13.91-14.45,5.91-3.46,12.71-5.19,20.39-5.19s14.71,1.75,20.64,5.26c5.93,3.51,10.56,8.35,13.87,14.52,3.31,6.17,4.97,13.27,4.97,21.29s-1.67,15.19-5.01,21.36c-3.34,6.17-7.98,11-13.9,14.48-5.94,3.48-12.79,5.22-20.57,5.22M317.54,165.45c6.29,0,10.99-2.12,14.09-6.38,3.1-4.25,4.64-9.72,4.64-16.39s-1.57-12.44-4.72-16.57c-3.15-4.13-7.82-6.2-14.02-6.2-4.28,0-7.78.96-10.52,2.89-2.74,1.92-4.77,4.59-6.09,8-1.32,3.41-1.98,7.37-1.98,11.89,0,6.96,1.57,12.5,4.72,16.61,3.15,4.11,7.77,6.16,13.87,6.16"/>
        <path d="M396.31,183.9c-6.1,0-11.08-1.03-14.92-3.1-3.84-2.06-6.83-4.68-8.97-7.85-2.14-3.17-3.66-6.47-4.57-9.91-.91-3.43-1.47-6.57-1.66-9.4-.19-2.84-.29-4.9-.29-6.2v-43.67h19.89v36.75c0,1.77.09,4.05.29,6.81.19,2.76.79,5.54,1.8,8.32,1.01,2.79,2.65,5.12,4.94,6.99,2.28,1.87,5.51,2.81,9.69,2.81,1.68,0,3.48-.26,5.41-.79,1.92-.53,3.72-1.55,5.4-3.06,1.68-1.52,3.06-3.75,4.14-6.7,1.08-2.96,1.62-6.83,1.62-11.64l11.24,5.33c0,6.15-1.25,11.92-3.75,17.3-2.5,5.38-6.26,9.73-11.28,13.04-5.02,3.32-11.35,4.97-18.99,4.97M421.52,181.59v-25.8h-2.45v-52.02h19.75v77.82h-17.3Z"/>
        <path d="M485.91,183.75c-8.07,0-14.99-1.8-20.75-5.41-5.76-3.6-10.19-8.5-13.26-14.7-3.08-6.2-4.61-13.19-4.61-20.97s1.59-14.92,4.79-21.12c3.19-6.19,7.7-11.07,13.51-14.62,5.81-3.55,12.68-5.33,20.61-5.33,9.18,0,16.87,2.32,23.09,6.95,6.22,4.64,10.2,10.96,11.93,18.99l-19.6,5.19c-1.16-4.04-3.16-7.18-6.02-9.44-2.86-2.26-6.09-3.38-9.69-3.38-4.13,0-7.52,1-10.16,2.99-2.64,2-4.59,4.71-5.84,8.14-1.25,3.43-1.87,7.31-1.87,11.64,0,6.77,1.5,12.26,4.5,16.46,3,4.21,7.46,6.31,13.36,6.31,4.42,0,7.78-1.01,10.09-3.03,2.31-2.02,4.04-4.9,5.19-8.65l20.03,4.18c-2.21,8.26-6.39,14.63-12.54,19.1-6.15,4.46-13.74,6.7-22.77,6.7"/>
        <path d="M531.79,181.59v-103.76h17.44v53.32h2.45v50.44h-19.89ZM584.97,181.59v-36.75c0-1.77-.09-4.04-.29-6.81-.19-2.76-.79-5.54-1.8-8.33-1-2.78-2.65-5.11-4.94-6.99-2.28-1.87-5.51-2.81-9.69-2.81-1.68,0-3.48.27-5.41.79-1.92.53-3.72,1.55-5.4,3.06-1.68,1.51-3.06,3.73-4.15,6.66-1.08,2.93-1.62,6.82-1.62,11.67l-11.24-5.33c0-6.15,1.24-11.91,3.75-17.29,2.5-5.38,6.25-9.73,11.27-13.04,5.02-3.31,11.35-4.97,18.99-4.97,6.1,0,11.07,1.03,14.92,3.1,3.84,2.06,6.83,4.68,8.97,7.85,2.14,3.17,3.66,6.47,4.58,9.91.91,3.44,1.47,6.57,1.66,9.4.19,2.84.29,4.9.29,6.2v43.67h-19.89Z"/>
        <path d="M629.13,181.59v-103.76h40.07c1.01,0,2.15.04,3.42.11,1.27.07,2.56.23,3.85.47,5.43.82,10.03,2.7,13.8,5.66,3.77,2.95,6.63,6.66,8.57,11.13,1.95,4.47,2.92,9.41,2.92,14.84s-.98,10.31-2.95,14.77c-1.97,4.47-4.84,8.18-8.61,11.13-3.77,2.95-8.35,4.84-13.73,5.65-1.3.19-2.58.34-3.85.43-1.27.1-2.41.14-3.42.14h-29.47v39.42h-10.59ZM639.72,132.09h29.18c.86,0,1.87-.05,3.03-.14,1.15-.09,2.28-.26,3.38-.5,3.55-.77,6.47-2.24,8.75-4.4,2.29-2.16,3.99-4.73,5.12-7.71,1.13-2.98,1.69-6.08,1.69-9.3s-.56-6.33-1.69-9.33c-1.13-3-2.83-5.58-5.12-7.74-2.28-2.16-5.2-3.63-8.75-4.39-1.1-.24-2.23-.4-3.38-.47-1.15-.07-2.16-.11-3.03-.11h-29.18v44.1Z"/>
        <path d="M741.28,183.75c-7.73,0-14.34-1.75-19.82-5.26-5.48-3.5-9.68-8.36-12.61-14.55-2.93-6.2-4.4-13.31-4.4-21.33s1.49-15.32,4.47-21.47c2.98-6.15,7.22-10.94,12.72-14.38,5.5-3.43,12.04-5.15,19.64-5.15s14.42,1.74,19.92,5.22c5.5,3.48,9.7,8.31,12.61,14.48,2.91,6.17,4.36,13.27,4.36,21.29s-1.47,15.34-4.4,21.51-7.16,10.99-12.68,14.45c-5.53,3.46-12.13,5.19-19.82,5.19M741.28,173.59c8.65,0,15.08-2.87,19.31-8.61,4.22-5.74,6.34-13.2,6.34-22.37s-2.12-16.91-6.37-22.48c-4.25-5.57-10.68-8.36-19.28-8.36-5.81,0-10.61,1.31-14.37,3.93-3.77,2.62-6.58,6.25-8.43,10.88-1.85,4.64-2.78,9.98-2.78,16.03,0,9.37,2.16,16.87,6.48,22.52,4.33,5.64,10.69,8.47,19.1,8.47"/>
        <path d="M788.08,77.11h10.59v11.89h-10.59v-11.89ZM788.08,103.77h10.59v77.82h-10.59v-77.82Z"/>
        <path d="M809.14,181.59v-77.82h9.58v19.17h1.08v58.66h-10.66ZM865.42,181.59v-39.7c0-4.32-.41-8.3-1.22-11.93-.82-3.62-2.12-6.8-3.93-9.51-1.8-2.71-4.13-4.81-6.99-6.3-2.86-1.49-6.33-2.23-10.41-2.23-3.75,0-7.05.65-9.91,1.94-2.86,1.3-5.26,3.16-7.21,5.58-1.95,2.43-3.43,5.37-4.43,8.83-1.01,3.46-1.52,7.4-1.52,11.82l-7.49-1.66c0-7.98,1.39-14.67,4.18-20.11,2.79-5.43,6.63-9.54,11.53-12.32,4.9-2.78,10.52-4.18,16.86-4.18,4.66,0,8.73.72,12.21,2.16,3.48,1.44,6.44,3.39,8.86,5.84,2.43,2.45,4.38,5.25,5.88,8.4,1.49,3.15,2.57,6.48,3.24,10.01.68,3.53,1.01,7.05,1.01,10.56v42.8h-10.66Z"/>
        <path d="M889.86,103.77h30.7v9.08h-30.7v-9.08ZM920.56,181.59c-4.37.91-8.68,1.27-12.93,1.08-4.25-.19-8.05-1.1-11.39-2.73-3.34-1.63-5.87-4.18-7.6-7.64-1.4-2.88-2.15-5.8-2.27-8.75-.12-2.96-.18-6.33-.18-10.12v-71.26h10.52v70.83c0,3.27.04,5.99.11,8.18.07,2.19.56,4.12,1.47,5.8,1.73,3.22,4.48,5.14,8.25,5.76,3.77.63,8.44.48,14.02-.43v9.3Z"/>
      </g>
      <g>
        <path d="M161.89,57.44h-31.26c-6.1,0-11.04,4.94-11.04,11.04v19.64c.3,2.8.1,5.6-.58,10.01-1.41,9.13-7.01,17.22-15.23,21.44-25.4,13.05-50.57-4.98-50.57-28.87,0-.71,0-1.38.09-2.04h-.09v-20.18c0-6.09-4.94-11.04-11.04-11.04H11.04c-6.1,0-11.04,4.94-11.04,11.04v44.43c0,6.1,4.94,11.04,11.04,11.04h31.13c6.1,0,11.04,4.94,11.04,11.04v35.56c0,6.1,4.94,11.04,11.04,11.04h44.43c6.1,0,11.04-4.94,11.04-11.04v-35.56c0-6.1,4.94-11.04,11.04-11.04h31.13c6.1,0,11.04-4.94,11.04-11.04v-44.43c0-6.09-4.94-11.04-11.04-11.04"/>
        <path d="M86.39,108.16h0c-10.52,0-19.05-8.53-19.05-19.05v-52.35h38.09v52.35c0,10.52-8.53,19.05-19.05,19.05"/>
        <polygon points="46.71 44.72 86.39 0 126.22 44.72 46.71 44.72"/>
      </g>
    </g>
  </g>
</svg>